<svg width="138" height="110" viewBox="0 0 138 110" fill="none" xmlns="http://www.w3.org/2000/svg">
<path fill-rule="evenodd" clip-rule="evenodd" d="M130.737 91.6667V73.3333H134.368V91.6667H130.737ZM94.4211 91.6667H119.842V95.3333H94.4211V91.6667ZM116.211 77H112.579V73.3333H116.211V69.6667H119.842V88H116.211V77ZM108.947 80.6667V77H112.579V80.6667H108.947ZM105.316 84.3333V80.6667H108.947V84.3333H105.316ZM101.684 77H105.316V80.6667H101.684V77ZM98.0526 88H94.4211V69.6667H98.0526V73.3333H101.684V77H98.0526V88ZM127.105 66H130.737V73.3333H127.105V66ZM123.474 62.3333H127.105V66H123.474V62.3333ZM116.211 58.6667H123.474V62.3333H116.211V58.6667ZM98.0526 62.3333H90.7895V58.6667H94.4211V47.6667H87.1579V62.3333H90.7895V66H87.1579V73.3333H83.5263V44H98.0526V55H116.211V58.6667H98.0526V62.3333ZM83.5263 40.3333V44H79.8947V40.3333H72.6316V44H69V40.3333H54.4737V44H50.8421V40.3333H43.5789V44H39.9474V40.3333H25.4211V44H21.7895V40.3333H10.8947V36.6667H112.579V40.3333H101.684V44H98.0526V40.3333H83.5263ZM36.3158 44H39.9474V73.3333H25.4211V44H36.3158ZM29.0526 69.6667H36.3158V47.6667H29.0526V69.6667ZM39.9474 84.3333V73.3333H43.5789V84.3333H50.8421V73.3333H54.4737V84.3333H69V73.3333H72.6316V84.3333H79.8947V73.3333H83.5263V91.6667H87.1579V99H90.7895V102.667H10.8947V91.6667H14.5263V88H18.1579V91.6667H79.8947V88H18.1579V84.3333H21.7895V73.3333H25.4211V84.3333H39.9474ZM14.5263 95.3333V99H83.5263V95.3333H14.5263ZM69 73.3333H54.4737V44H69V73.3333ZM65.3684 47.6667H58.1053V69.6667H65.3684V47.6667ZM98.0526 106.333H90.7895V102.667H98.0526V106.333ZM123.474 102.667V106.333H116.211V102.667H123.474ZM127.105 99V102.667H123.474V99H127.105ZM130.737 91.6667V99H127.105V91.6667H130.737ZM116.211 110H98.0526V106.333H116.211V110ZM50.8421 18.3333H54.4737V25.6667H50.8421V18.3333ZM58.1053 29.3333H54.4737V25.6667H58.1053V29.3333ZM69 25.6667V29.3333H65.3684V25.6667H69ZM65.3684 14.6667H69V18.3333H65.3684V14.6667ZM54.4737 18.3333V14.6667H58.1053V18.3333H54.4737ZM58.1053 11H65.3684V14.6667H58.1053V11ZM72.6316 18.3333V25.6667H69V18.3333H72.6316ZM65.3684 33H58.1053V29.3333H65.3684V33ZM72.6316 33V29.3333H108.947V25.6667H112.579V33H72.6316ZM101.684 22H108.947V25.6667H101.684V22ZM94.4211 18.3333H101.684V22H94.4211V18.3333ZM87.1579 14.6667H94.4211V18.3333H87.1579V14.6667ZM79.8947 11H87.1579V14.6667H79.8947V11ZM72.6316 7.33333H79.8947V11H72.6316V7.33333ZM65.3684 3.66667H72.6316V7.33333H65.3684V3.66667ZM50.8421 7.33333V3.66667H58.1053V7.33333H50.8421ZM43.5789 11V7.33333H50.8421V11H43.5789ZM36.3158 14.6667V11H43.5789V14.6667H36.3158ZM29.0526 18.3333V14.6667H36.3158V18.3333H29.0526ZM21.7895 22V18.3333H29.0526V22H21.7895ZM14.5263 25.6667V22H21.7895V25.6667H14.5263ZM50.8421 29.3333V33H10.8947V25.6667H14.5263V29.3333H50.8421ZM7.26316 36.6667V33H10.8947V36.6667H7.26316ZM58.1053 0H65.3684V3.66667H58.1053V0ZM116.211 33V36.6667H112.579V33H116.211Z" fill="#858585"/>
<path fill-rule="evenodd" clip-rule="evenodd" d="M108.947 33V36.6667H14.5263V33H50.8421V29.3333H21.7895V25.6667H29.0526V22H36.3158V18.3333H43.5789V14.6667H50.8421V11H58.1053V14.6667H54.4737V18.3333H50.8421V25.6667H54.4737V29.3333H58.1053V33H65.3684V29.3333H69V25.6667H72.6316V18.3333H69V14.6667H65.3684V11H58.1053V7.33333H61.7368V3.66667H65.3684V7.33333H72.6316V11H79.8947V14.6667H87.1579V18.3333H94.4211V22H101.684V25.6667H105.316V29.3333H72.6316V33H108.947ZM58.1053 18.3333H69V25.6667H65.3684V22H61.7368V25.6667H65.3684V29.3333H58.1053V18.3333ZM25.4211 91.6667H18.1579V88H25.4211V91.6667ZM36.3158 44H29.0526V40.3333H36.3158V44ZM36.3158 47.6667V69.6667H32.6842V47.6667H36.3158ZM36.3158 84.3333H29.0526V73.3333H36.3158V84.3333ZM39.9474 88H43.5789V91.6667H39.9474V88ZM39.9474 99H32.6842V95.3333H39.9474V99ZM65.3684 84.3333H58.1053V73.3333H65.3684V84.3333ZM58.1053 40.3333H65.3684V44H58.1053V40.3333ZM65.3684 69.6667H61.7368V47.6667H65.3684V69.6667ZM79.8947 91.6667H47.2105V88H79.8947V91.6667ZM83.5263 99H50.8421V95.3333H83.5263V99ZM94.4211 44H87.1579V40.3333H94.4211V44ZM94.4211 58.6667H90.7895L90.7895 47.6667H94.4211V58.6667Z" fill="#DDDDDD"/>
<path fill-rule="evenodd" clip-rule="evenodd" d="M87.1579 62.3333V47.6667H90.7895L90.7895 62.3333H87.1579ZM83.5263 40.3333H87.1579V44H83.5263V40.3333ZM61.7368 22H65.3684V25.6667H61.7368V22ZM54.4737 25.6667V18.3333H58.1053V25.6667H54.4737ZM58.1053 14.6667H65.3684V18.3333H58.1053V14.6667ZM50.8421 11V7.33333H58.1053V11H50.8421ZM43.5789 14.6667V11H50.8421V14.6667H43.5789ZM36.3158 18.3333V14.6667H43.5789V18.3333H36.3158ZM29.0526 22V18.3333H36.3158V22H29.0526ZM21.7895 25.6667V22H29.0526V25.6667H21.7895ZM14.5263 29.3333V25.6667H21.7895V29.3333H14.5263ZM58.1053 3.66667H61.7368V7.33333H58.1053V3.66667ZM14.5263 36.6667H10.8947V33H14.5263V36.6667ZM32.6842 99H14.5263V95.3333H32.6842V99ZM39.9474 91.6667H25.4211V88H39.9474V91.6667ZM32.6842 69.6667H29.0526V47.6667H32.6842V69.6667ZM25.4211 40.3333H29.0526V44H25.4211V40.3333ZM29.0526 84.3333H25.4211V73.3333H29.0526V84.3333ZM47.2105 88V91.6667H43.5789V88H47.2105ZM50.8421 99H39.9474V95.3333H50.8421V99ZM58.1053 44H54.4737V40.3333H58.1053V44ZM58.1053 47.6667H61.7368V69.6667H58.1053V47.6667ZM58.1053 84.3333H54.4737V73.3333H58.1053V84.3333Z" fill="#E9E9E9"/>
<path fill-rule="evenodd" clip-rule="evenodd" d="M108.947 36.6667V33H112.579V36.6667H108.947ZM105.316 25.6667H108.947V29.3333H105.316V25.6667ZM94.4211 40.3333H98.0526V44H94.4211V40.3333ZM65.3684 73.3333H69V84.3333H65.3684V73.3333ZM65.3684 40.3333H69V44H65.3684V40.3333ZM36.3158 73.3333H39.9474V84.3333H36.3158V73.3333ZM36.3158 40.3333H39.9474V44H36.3158V40.3333Z" fill="#BCBCBC"/>
<path fill-rule="evenodd" clip-rule="evenodd" d="M134.368 110V106.333H138V110H134.368ZM116.211 106.333H130.737V110L116.211 110V106.333ZM112.579 62.3333H116.211V66H112.579V62.3333ZM101.684 62.3333H108.947V66H101.684V62.3333ZM90.7895 106.333H98.0526V110L90.7895 110L90.7895 106.333ZM90.7895 69.6667L94.4211 69.6667V73.3333H90.7895V69.6667ZM83.5263 106.333H87.1579V110H83.5263V106.333Z" fill="#DDDDDD"/>
<path fill-rule="evenodd" clip-rule="evenodd" d="M127.105 77V95.3333H123.474L123.474 99H116.211L116.211 102.667H98.0526V99H90.7895L90.7895 95.3333H87.1579V91.6667H83.5263V88H87.1579V77H90.7895V73.3333H94.4211V88H98.0526V77H101.684V80.6667H105.316V84.3333H108.947V80.6667H112.579V77H116.211V88H119.842V69.6667H116.211V73.3333H112.579V77H108.947V80.6667H105.316V77H101.684V73.3333H98.0526V69.6667H94.4211V66H98.0526V62.3333H101.684V66H108.947V62.3333H112.579V66H123.474L123.474 69.6667H127.105L127.105 73.3333H130.737V77H127.105ZM119.842 91.6667H94.4211V95.3333H119.842V91.6667Z" fill="#E8E8E8"/>
<path fill-rule="evenodd" clip-rule="evenodd" d="M127.105 91.6667L127.105 77H130.737V91.6667H127.105ZM127.105 95.3333L127.105 99H123.474L123.474 95.3333H127.105ZM116.211 102.667L116.211 99H123.474V102.667H116.211ZM98.0526 106.333V102.667H116.211V106.333H98.0526ZM90.7895 99H98.0526V102.667H90.7895V99ZM87.1579 95.3333H90.7895L90.7895 99H87.1579V95.3333Z" fill="#D1D1D1"/>
<path fill-rule="evenodd" clip-rule="evenodd" d="M123.474 69.6667L123.474 66H127.105L127.105 69.6667H123.474ZM116.211 62.3333H123.474V66H116.211V62.3333ZM94.4211 66V69.6667L90.7895 69.6667V77H87.1579V88H83.5263V73.3333H87.1579V66H90.7895V62.3333H98.0526V66H94.4211ZM98.0526 58.6667H116.211V62.3333H98.0526V58.6667Z" fill="#FAFAFA"/>
<path fill-rule="evenodd" clip-rule="evenodd" d="M65.3684 106.333V102.667L90.7895 102.667V106.333L65.3684 106.333ZM50.8421 102.667H54.4737V106.333H50.8421V102.667ZM32.6842 102.667H47.2105V106.333H32.6842V102.667ZM18.1579 102.667H21.7895V106.333H18.1579V102.667ZM7.26316 99H10.8947L10.8947 102.667L7.26316 102.667V99ZM0 99H3.63158V102.667H0V99Z" fill="#EDEDED"/>
</svg>
