<svg width="170" height="170" viewBox="0 0 170 170" fill="none" xmlns="http://www.w3.org/2000/svg">
<path fill-rule="evenodd" clip-rule="evenodd" d="M10.8571 0H0V10.8571V21.7143V32.5714V43.4286V54.2857V65.1429V76H10.8571H21.7143H32.5714H43.4286H54.2857H65.1429H76V65.1429V54.2857V43.4286V32.5714V21.7143V10.8571V0H65.1429H54.2857H43.4286H32.5714H21.7143H10.8571ZM65.1429 54.2857V65.1429H54.2857H43.4286H32.5714H21.7143H10.8571V54.2857V43.4286V32.5714V21.7143V10.8571H21.7143H32.5714H43.4286H54.2857H65.1429V21.7143V32.5714V43.4286V54.2857ZM21.7143 21.7143H32.5714H43.4286H54.2857V32.5714V43.4286V54.2857H43.4286H32.5714H21.7143V43.4286V32.5714V21.7143ZM94 94H104.857V104.857H94V94ZM115.714 94H126.571H137.429H148.286V104.857H137.429H126.571V115.714H137.429H148.286V126.571H159.143H170V137.429H159.143H148.286H137.429V148.286V159.143H126.571V148.286V137.429V126.571H115.714H104.857H94V115.714H104.857H115.714V104.857V94ZM115.714 159.143H126.571V170H115.714V159.143ZM115.714 159.143H104.857V148.286H115.714V159.143ZM148.286 115.714V104.857H159.143V94H170V104.857V115.714H159.143H148.286ZM159.143 159.143H170V170H159.143V159.143ZM94 0H104.857H115.714H126.571H137.429H148.286H159.143H170V10.8571V21.7143V32.5714V43.4286V54.2857V65.1429V76H159.143H148.286H137.429H126.571H115.714H104.857H94V65.1429V54.2857V43.4286V32.5714V21.7143V10.8571V0ZM159.143 65.1429V54.2857V43.4286V32.5714V21.7143V10.8571H148.286H137.429H126.571H115.714H104.857V21.7143V32.5714V43.4286V54.2857V65.1429H115.714H126.571H137.429H148.286H159.143ZM126.571 21.7143H115.714V32.5714V43.4286V54.2857H126.571H137.429H148.286V43.4286V32.5714V21.7143H137.429H126.571ZM10.8571 94H0V104.857V115.714V126.571V137.429V148.286V159.143V170H10.8571H21.7143H32.5714H43.4286H54.2857H65.1429H76V159.143V148.286V137.429V126.571V115.714V104.857V94H65.1429H54.2857H43.4286H32.5714H21.7143H10.8571ZM65.1429 148.286V159.143H54.2857H43.4286H32.5714H21.7143H10.8571V148.286V137.429V126.571V115.714V104.857H21.7143H32.5714H43.4286H54.2857H65.1429V115.714V126.571V137.429V148.286ZM21.7143 115.714H32.5714H43.4286H54.2857V126.571V137.429V148.286H43.4286H32.5714H21.7143V137.429V126.571V115.714Z" fill="#E8E8E8"/>
</svg>
