<svg width="15" height="20" viewBox="0 0 15 20" fill="none" xmlns="http://www.w3.org/2000/svg">
<path d="M13.5938 0.952386H10.0781L9.80273 0.395838C9.7444 0.276855 9.65454 0.176768 9.54326 0.106838C9.43198 0.0369083 9.3037 -9.0118e-05 9.17285 5.21807e-06H5.82422C5.69367 -0.000504619 5.56561 0.0363558 5.45473 0.106363C5.34384 0.176371 5.25462 0.276694 5.19727 0.395838L4.92188 0.952386H1.40625C1.28193 0.952386 1.1627 1.00256 1.07479 1.09186C0.986886 1.18116 0.9375 1.30228 0.9375 1.42858V2.38096C0.9375 2.50725 0.986886 2.62837 1.07479 2.71767C1.1627 2.80698 1.28193 2.85715 1.40625 2.85715H13.5938C13.7181 2.85715 13.8373 2.80698 13.9252 2.71767C14.0131 2.62837 14.0625 2.50725 14.0625 2.38096V1.42858C14.0625 1.30228 14.0131 1.18116 13.9252 1.09186C13.8373 1.00256 13.7181 0.952386 13.5938 0.952386ZM2.49609 13.8988C2.51845 14.2615 2.67602 14.6019 2.93674 14.8507C3.19745 15.0995 3.5417 15.238 3.89941 15.2381H11.1006C11.4583 15.238 11.8026 15.0995 12.0633 14.8507C12.324 14.6019 12.4815 14.2615 12.5039 13.8988L13.125 3.80953H1.875L2.49609 13.8988Z" fill="black"/>
<path d="M0 19.0476C0 18.5216 0.419733 18.0952 0.9375 18.0952H14.0625C14.5803 18.0952 15 18.5216 15 19.0476C15 19.5736 14.5803 20 14.0625 20H0.9375C0.419733 20 0 19.5736 0 19.0476Z" fill="black"/>
</svg>
