<svg xmlns="http://www.w3.org/2000/svg" viewBox="0 0 314.74 156.37"><defs><style>.cls-1{fill:#fff;}</style></defs><title>자산 1</title><g id="레이어_2" data-name="레이어 2"><g id="레이어_1-2" data-name="레이어 1"><path class="cls-1" d="M138.44,30.76V17.36a17.36,17.36,0,1,0-34.71,0v13.4A17.33,17.33,0,0,1,98.64,43L82.46,59.22A17.35,17.35,0,1,0,107,83.76L108.81,82a17.36,17.36,0,0,1,24.54,0l1.81,1.81A17.35,17.35,0,1,0,159.7,59.22L143.52,43a17.32,17.32,0,0,1-5.08-12.27"/><path class="cls-1" d="M185.9,58.08V71.49a17.36,17.36,0,0,0,34.71,0V58.08a17.34,17.34,0,0,1,5.08-12.27l16.18-16.18A17.36,17.36,0,1,0,217.33,5.08l-1.81,1.81a17.35,17.35,0,0,1-24.54,0l-1.81-1.81a17.36,17.36,0,1,0-24.54,24.55l16.18,16.18a17.35,17.35,0,0,1,5.09,12.27"/><path class="cls-1" d="M.59,149.2l16-36.2a6.26,6.26,0,0,1,5.92-4h.59A6.17,6.17,0,0,1,29,113l16,36.2a4.93,4.93,0,0,1,.52,2,4.79,4.79,0,0,1-4.79,4.86,5.14,5.14,0,0,1-4.86-3.48l-3.09-7.23H12.55L9.33,153a5,5,0,0,1-4.66,3.15A4.66,4.66,0,0,1,0,151.37a5.39,5.39,0,0,1,.59-2.17M29,136.46l-6.37-15.18-6.38,15.18Z"/><path class="cls-1" d="M89.49,138,74.64,117.8a6,6,0,0,1-1.24-3.62,4.94,4.94,0,0,1,5.06-4.86c2.29,0,3.74,1.25,5,3.09l11.17,16.1L106,112.28c1.24-1.84,2.75-3,4.86-3a4.68,4.68,0,0,1,4.93,4.92,6.28,6.28,0,0,1-1.32,3.55l-14.85,20V151a5.06,5.06,0,0,1-10.12,0Z"/><path class="cls-1" d="M152.05,114.38a5.06,5.06,0,1,1,10.12,0V151a5.06,5.06,0,1,1-10.12,0Z"/><path class="cls-1" d="M200,149.2l16-36.2a6.24,6.24,0,0,1,5.91-4h.59a6.17,6.17,0,0,1,5.85,4l16,36.2a5,5,0,0,1,.53,2,4.8,4.8,0,0,1-4.8,4.86,5.15,5.15,0,0,1-4.86-3.48l-3.09-7.23H212L208.75,153a5,5,0,0,1-4.66,3.15,4.66,4.66,0,0,1-4.67-4.73,5.56,5.56,0,0,1,.59-2.17m28.45-12.74-6.37-15.18-6.37,15.18Z"/><path class="cls-1" d="M280.57,150.85a4.75,4.75,0,0,1-1.9-3.81,4.66,4.66,0,0,1,4.73-4.67,4.88,4.88,0,0,1,2.89.92,19.4,19.4,0,0,0,11.76,4.14c4.14,0,6.64-1.64,6.64-4.34V143c0-2.56-1.58-3.87-9.27-5.85-9.26-2.36-15.24-4.92-15.24-14.06v-.13c0-8.34,6.7-13.86,16.1-13.86a26.67,26.67,0,0,1,14.58,4.07,4.68,4.68,0,0,1-2.49,8.68,4.88,4.88,0,0,1-2.57-.73,19.14,19.14,0,0,0-9.66-3.09c-3.87,0-5.91,1.78-5.91,4v.13c0,3,2,4,9.92,6.05,9.33,2.43,14.59,5.78,14.59,13.8v.13c0,9.13-7,14.26-16.89,14.26a29.71,29.71,0,0,1-17.28-5.52"/><path class="cls-1" d="M64.58,135.18a3.06,3.06,0,0,1-.63,2.06,2.44,2.44,0,0,1-3.48,0,3.06,3.06,0,0,1-.63-2.06v-1a3,3,0,0,1,.63-2,2.44,2.44,0,0,1,3.48,0,3.06,3.06,0,0,1,.63,2Zm-.73-.85a4.24,4.24,0,0,0-.11-1,1.86,1.86,0,0,0-.34-.69,1.18,1.18,0,0,0-.52-.39,1.93,1.93,0,0,0-1.34,0,1.18,1.18,0,0,0-.52.39,1.86,1.86,0,0,0-.34.69,4.24,4.24,0,0,0-.11,1v.73a4.24,4.24,0,0,0,.11,1,1.83,1.83,0,0,0,.34.7,1.18,1.18,0,0,0,.52.39,1.93,1.93,0,0,0,1.34,0,1.18,1.18,0,0,0,.52-.39,1.83,1.83,0,0,0,.34-.7,4.24,4.24,0,0,0,.11-1Zm3.13,0h1.6V135H67v5.35h-.75v-9.62H67Z"/><path class="cls-1" d="M128.45,135.19a3.06,3.06,0,0,1-.63,2.06,2.44,2.44,0,0,1-3.5,0,3.06,3.06,0,0,1-.63-2.06v-1a3,3,0,0,1,.63-2.05,2.44,2.44,0,0,1,3.5,0,3.07,3.07,0,0,1,.63,2.06Zm-.73-.86a3.76,3.76,0,0,0-.12-1,1.86,1.86,0,0,0-.34-.69,1.28,1.28,0,0,0-.52-.4,1.93,1.93,0,0,0-1.34,0,1.28,1.28,0,0,0-.52.4,1.86,1.86,0,0,0-.34.69,3.76,3.76,0,0,0-.12,1v.74a3.76,3.76,0,0,0,.12,1,1.83,1.83,0,0,0,.34.7,1.18,1.18,0,0,0,.52.39,1.79,1.79,0,0,0,1.34,0,1.18,1.18,0,0,0,.52-.39,1.83,1.83,0,0,0,.34-.7,3.76,3.76,0,0,0,.12-1Zm3.38,6h-.75v-9.62h.75Z"/><path class="cls-1" d="M181.9,135.18a3.06,3.06,0,0,1-.63,2.06,2.14,2.14,0,0,1-1.74.73,2.17,2.17,0,0,1-1.74-.73,3.05,3.05,0,0,1-.62-2.06v-1a3,3,0,0,1,.62-2,2.17,2.17,0,0,1,1.74-.73,2.14,2.14,0,0,1,1.74.73,3.06,3.06,0,0,1,.63,2Zm-.73-.85a3.79,3.79,0,0,0-.11-1,2,2,0,0,0-.33-.69,1.3,1.3,0,0,0-.52-.39,1.87,1.87,0,0,0-.68-.12,1.81,1.81,0,0,0-.67.12,1.24,1.24,0,0,0-.52.39,2,2,0,0,0-.33.69,3.76,3.76,0,0,0-.12,1v.73a3.76,3.76,0,0,0,.12,1,2,2,0,0,0,.33.7,1.24,1.24,0,0,0,.52.39,1.81,1.81,0,0,0,.67.12,1.87,1.87,0,0,0,.68-.12,1.3,1.3,0,0,0,.52-.39,2,2,0,0,0,.33-.7,3.79,3.79,0,0,0,.11-1Zm3.11-1.36h1.6v.67h-1.6v2h1.6v.66h-1.6v4h-.74v-9.62h.74Z"/><path class="cls-1" d="M264.69,139h-8.84v-.64h8.84Zm-4.43-4.79a1.31,1.31,0,0,1-.36.43,8.86,8.86,0,0,1-.87.65L258,136q-.6.36-1.17.66l-.4-.59c.46-.23.88-.47,1.27-.7s.7-.42,1-.59.47-.33.64-.47a1.62,1.62,0,0,0,.39-.45,1.53,1.53,0,0,0,.2-.53,4.67,4.67,0,0,0,.05-.72v-1.16h.77v1.16a4.67,4.67,0,0,0,.05.72,1.53,1.53,0,0,0,.2.53,1.62,1.62,0,0,0,.39.45,7.36,7.36,0,0,0,.63.47c.25.17.56.36.94.59s.81.46,1.26.69l-.39.58c-.38-.2-.76-.42-1.16-.66s-.75-.46-1.07-.67a8.52,8.52,0,0,1-.86-.65,1.39,1.39,0,0,1-.37-.42Z"/></g></g></svg>