<svg width="19" height="20" viewBox="0 0 19 20" fill="none" xmlns="http://www.w3.org/2000/svg">
<path d="M9.50002 18.5C10.6165 18.5015 11.7222 18.2823 12.7537 17.855C13.7851 17.4277 14.722 16.8008 15.5104 16.0104C16.3009 15.2219 16.9278 14.2851 17.355 13.2536C17.7823 12.2222 18.0015 11.1165 18 10C18.0014 8.88356 17.7822 7.77784 17.355 6.74638C16.9277 5.71492 16.3008 4.77807 15.5104 3.98964C14.722 3.19916 13.7851 2.57227 12.7537 2.14501C11.7222 1.71775 10.6165 1.49855 9.50002 1.49999C8.38357 1.49857 7.27785 1.71778 6.24639 2.14504C5.21494 2.5723 4.27808 3.19917 3.48966 3.98964C2.69919 4.77807 2.07231 5.71492 1.64506 6.74638C1.2178 7.77784 0.998584 8.88356 1.00001 10C0.998561 11.1165 1.21777 12.2222 1.64502 13.2536C2.07228 14.2851 2.69917 15.2219 3.48966 16.0104C4.27808 16.8008 5.21494 17.4277 6.24639 17.855C7.27785 18.2822 8.38357 18.5014 9.50002 18.5V18.5Z" stroke="black" stroke-width="2" stroke-linejoin="round"/>
<path fill-rule="evenodd" clip-rule="evenodd" d="M9.5 15.525C9.78179 15.525 10.052 15.4131 10.2513 15.2138C10.4506 15.0145 10.5625 14.7443 10.5625 14.4625C10.5625 14.1807 10.4506 13.9105 10.2513 13.7112C10.052 13.5119 9.78179 13.4 9.5 13.4C9.21821 13.4 8.94796 13.5119 8.7487 13.7112C8.54944 13.9105 8.4375 14.1807 8.4375 14.4625C8.4375 14.7443 8.54944 15.0145 8.7487 15.2138C8.94796 15.4131 9.21821 15.525 9.5 15.525Z" fill="black"/>
<path fill-rule="evenodd" clip-rule="evenodd" d="M9.5 3.89999C10.0523 3.89999 10.5 4.34771 10.5 4.89999V11.7C10.5 12.2523 10.0523 12.7 9.5 12.7C8.94772 12.7 8.5 12.2523 8.5 11.7V4.89999C8.5 4.34771 8.94772 3.89999 9.5 3.89999Z" fill="black"/>
</svg>
