<?xml version="1.0" ?><!DOCTYPE svg  PUBLIC '-//W3C//DTD SVG 1.1//EN'  'http://www.w3.org/Graphics/SVG/1.1/DTD/svg11.dtd'><svg enable-background="new 0 0 91 91" height="91px" id="Layer_1" version="1.1" viewBox="0 0 91 91" width="91px" xml:space="preserve" xmlns="http://www.w3.org/2000/svg" xmlns:xlink="http://www.w3.org/1999/xlink"><g><path d="M65.689,31.201l-4.153-4.153c-1.23-1.231-2.867-1.91-4.609-1.91s-3.379,0.678-4.609,1.909L29.229,50.134   c-0.095,0.095-0.173,0.202-0.241,0.313c-0.02,0.032-0.035,0.064-0.053,0.098c-0.048,0.092-0.088,0.187-0.118,0.285   c-0.007,0.021-0.021,0.041-0.026,0.063l-4.008,14.826c-0.159,0.588,0.008,1.216,0.438,1.646c0.323,0.322,0.757,0.498,1.202,0.498   c0.148,0,0.297-0.02,0.443-0.059l14.189-3.836c0.113,0.023,0.229,0.036,0.344,0.036c0.436,0,0.87-0.166,1.202-0.498L65.689,40.42   c1.231-1.231,1.91-2.869,1.909-4.61C67.599,34.069,66.921,32.432,65.689,31.201z M41.4,59.9l-8.564-8.564l18.229-18.229   l8.565,8.563L41.4,59.9z M28.837,63.75l2.47-9.135l6.665,6.665L28.837,63.75z M63.285,38.016l-1.25,1.25l-8.565-8.563l1.252-1.251   c1.178-1.178,3.232-1.178,4.41,0l4.153,4.154c0.589,0.589,0.914,1.373,0.914,2.206S63.875,37.427,63.285,38.016z"/><rect height="3.4" transform="matrix(0.7071 -0.7071 0.7071 0.7071 -18.8662 46.5096)" width="15.087" x="39.166" y="44.328"/></g></svg>