<svg width="88" height="88" viewBox="0 0 88 88" fill="none" xmlns="http://www.w3.org/2000/svg">
<g filter="url(#filter0_d_81_183)">
<path d="M83.6584 2.21591C84.3014 3.76894 84.0366 5.0947 82.8641 6.19318L54.8933 34.2045V76.3636C54.8933 77.9545 54.1557 79.072 52.6806 79.7159C52.1889 79.9053 51.7161 80 51.2622 80C50.241 80 49.3899 79.6402 48.7091 78.9205L34.1847 64.375C33.466 63.6553 33.1067 62.803 33.1067 61.8182V34.2045L5.1359 6.19318C3.96336 5.0947 3.69859 3.76894 4.3416 2.21591C4.9846 0.738636 6.10041 0 7.68902 0H80.311C81.8996 0 83.0154 0.738636 83.6584 2.21591Z" fill="#151402"/>
</g>
<defs>
<filter id="filter0_d_81_183" x="0" y="0" width="88" height="88" filterUnits="userSpaceOnUse" color-interpolation-filters="sRGB">
<feFlood flood-opacity="0" result="BackgroundImageFix"/>
<feColorMatrix in="SourceAlpha" type="matrix" values="0 0 0 0 0 0 0 0 0 0 0 0 0 0 0 0 0 0 127 0" result="hardAlpha"/>
<feOffset dy="4"/>
<feGaussianBlur stdDeviation="2"/>
<feComposite in2="hardAlpha" operator="out"/>
<feColorMatrix type="matrix" values="0 0 0 0 0 0 0 0 0 0 0 0 0 0 0 0 0 0 0.25 0"/>
<feBlend mode="normal" in2="BackgroundImageFix" result="effect1_dropShadow_81_183"/>
<feBlend mode="normal" in="SourceGraphic" in2="effect1_dropShadow_81_183" result="shape"/>
</filter>
</defs>
</svg>
