<svg width="107" height="107" viewBox="0 0 107 107" fill="none" xmlns="http://www.w3.org/2000/svg">
<path d="M96.7922 90.4594L76.5514 70.2186C82.554 62.6016 85.4198 52.9791 84.5627 43.3191C83.7057 33.6592 79.1905 24.6916 71.9407 18.2503C64.6908 11.8091 55.2541 8.38093 45.5604 8.66695C35.8667 8.95296 26.6484 12.9315 19.791 19.789C12.9335 26.6465 8.95492 35.8647 8.6689 45.5584C8.38289 55.2521 11.811 64.6889 18.2523 71.9387C24.6935 79.1886 33.6611 83.7037 43.3211 84.5608C52.9811 85.4178 62.6035 82.552 70.2206 76.5494L90.4614 96.7903C90.8758 97.2081 91.3689 97.5398 91.9122 97.7662C92.4555 97.9925 93.0382 98.109 93.6268 98.109C94.2154 98.109 94.7981 97.9925 95.3414 97.7662C95.8847 97.5398 96.3778 97.2081 96.7922 96.7903C97.2101 96.3758 97.5418 95.8827 97.7681 95.3394C97.9945 94.7961 98.111 94.2134 98.111 93.6248C98.111 93.0363 97.9945 92.4536 97.7681 91.9103C97.5418 91.367 97.2101 90.8739 96.7922 90.4594ZM17.8351 46.8123C17.8351 41.0808 19.5347 35.478 22.719 30.7124C25.9033 25.9468 30.4292 22.2325 35.7245 20.0391C41.0197 17.8457 46.8464 17.2718 52.4679 18.39C58.0893 19.5082 63.2529 22.2682 67.3057 26.321C71.3585 30.3738 74.1185 35.5374 75.2366 41.1588C76.3548 46.7802 75.7809 52.6069 73.5876 57.9022C71.3942 63.1974 67.6799 67.7234 62.9143 70.9076C58.1487 74.0919 52.5458 75.7915 46.8143 75.7915C39.1322 75.7797 31.7681 72.7228 26.336 67.2907C20.9039 61.8586 17.8469 54.4945 17.8351 46.8123Z" fill="black"/>
</svg>
